<?xml version="1.0" standalone="no"?><!DOCTYPE svg PUBLIC "-//W3C//DTD SVG 1.1//EN" "http://www.w3.org/Graphics/SVG/1.1/DTD/svg11.dtd"><svg t="1602178387230" class="icon" viewBox="0 0 1024 1024" version="1.1" xmlns="http://www.w3.org/2000/svg" p-id="1352" xmlns:xlink="http://www.w3.org/1999/xlink" width="200" height="200"><defs><style type="text/css"></style></defs><path d="M123.992 587.773l58.325 0 0 300.074c0 59.05 41.387 79.995 76.825 79.995 2.285 0 4.098-0.095 4.9-0.17l160.69 0L424.732 649.188c0-5.42 4.22-9.34 4.875-9.705l165.492-0.195c1.715 1.045 4.73 7.71 4.82 10.655 0.28 9.115 0.06 225.494-0.015 291.579l-0.015 26.145 159.56 0c28.19 0 52.08-13.28 69.09-38.45 11.07-16.35 15.34-32.205 16.08-35.22l0.56-2.26 1.12-305.939 56.38 0c19.955 0 36.325-8.875 46.09-24.97 7.115-11.725 10.57-27.025 10.57-46.74l0-10.71-7.6-7.612C912.588 456.471 535.119 77.67 533.589 76.16c-6.105-6.02-15.04-9.072-26.55-9.072-10.422 0-18.762 3.04-24.87 9.097L65.312 501.531l0 10.577c0 19.5 6.532 38.275 18.39 52.88C95.292 579.258 110.347 587.773 123.992 587.773zM903.698 533.529c-0.255 0.02-0.6 0.035-1.02 0.035l-109.02 0-1.09 350.559c-2.75 8.395-12.175 31.33-33.12 31.33l-106.73 0c0.05-39.815 0.295-256.459-0.03-267.044-0.26-8.95-3.46-22.98-11.64-35.51-10.79-16.54-26.77-25.635-45.01-25.635l-166.43 0c-30.72 0-57.657 28.945-57.657 61.925l0 266.264-109.247-0.05-3.563 0.22c-21.16 0-24.02-14.035-24.02-27.775L235.121 535.559l-107.02 0c-2.53-2.07-6.725-6.77-8.767-14.11l388.642-396.594 398.021 399.414C905.388 529.419 904.388 532.139 903.698 533.529z" p-id="1353"></path></svg>